<svg width="31" height="32" viewBox="0 0 31 32" fill="none" xmlns="http://www.w3.org/2000/svg">
<path d="M27.2895 9.04396V27.6257C27.2895 28.4802 27.2804 29.3381 27.2895 30.1925V30.2269L28.8092 28.5111H2.95085C2.60134 28.5111 2.25182 28.5077 1.9023 28.5111H1.85671L3.37636 30.2269V11.6451C3.37636 10.7906 3.38547 9.93272 3.37636 9.07827V9.04396L1.85671 10.7597H27.715C28.0646 10.7597 28.4141 10.7632 28.7636 10.7597H28.8092C29.1982 10.7597 29.6085 10.5676 29.8851 10.2587C30.1495 9.96018 30.3471 9.4729 30.3288 9.04396C30.3106 8.60129 30.1829 8.14146 29.8851 7.82919C29.5872 7.52035 29.2225 7.32819 28.8092 7.32819H2.95085C2.60134 7.32819 2.25182 7.32475 1.9023 7.32819H1.85671C1.0361 7.32819 0.33706 8.11401 0.33706 9.04396V27.6257C0.33706 28.4802 0.327942 29.3381 0.33706 30.1925V30.2269C0.33706 31.1534 1.03306 31.9426 1.85671 31.9426H27.715C28.0646 31.9426 28.4141 31.9461 28.7636 31.9426H28.8092C29.6298 31.9426 30.3288 31.1568 30.3288 30.2269V11.6451C30.3288 10.7906 30.338 9.93272 30.3288 9.07827V9.04396C30.3288 8.60472 30.1586 8.14146 29.8851 7.82919C29.6207 7.53065 29.1891 7.3076 28.8092 7.32819C28.4171 7.34877 28.0098 7.4929 27.7333 7.82919C27.4628 8.16891 27.2895 8.5807 27.2895 9.04396Z" fill="black"/>
<path d="M28.809 7.3315H2.95068C2.60117 7.3315 2.25165 7.32806 1.90213 7.3315H1.85654C2.21517 8.30949 2.57381 9.28404 2.93245 10.262L4.93838 7.85309C6.00518 6.57313 7.07197 5.29659 8.13572 4.01663C8.37887 3.72495 8.62505 3.42983 8.86819 3.13815C8.50956 3.3063 8.15092 3.47444 7.79228 3.63916H21.0254C21.6332 3.63916 22.2411 3.64945 22.849 3.63916H22.8763C22.5177 3.47101 22.159 3.30287 21.8004 3.13815L23.8063 5.5471C24.8731 6.82706 25.9399 8.10359 27.0037 9.38356C27.2468 9.67524 27.493 9.97035 27.7361 10.262C27.9975 10.5777 28.4321 10.763 28.8121 10.763C29.1859 10.763 29.6296 10.5777 29.888 10.262C30.1524 9.93604 30.3499 9.50709 30.3317 9.04727C30.3135 8.58401 30.1706 8.17566 29.888 7.8325C29.2831 7.10845 28.6814 6.38439 28.0765 5.66034C27.0462 4.42498 26.0189 3.18963 24.9886 1.9577C24.6816 1.5871 24.3716 1.21992 24.0647 0.849316C23.7516 0.471846 23.3626 0.217912 22.8733 0.207618H8.25426C7.98072 0.207618 7.64944 0.173302 7.38806 0.269385C6.8653 0.461552 6.57656 0.8802 6.22097 1.30571C5.26359 2.45185 4.30925 3.59798 3.35187 4.74755C2.53734 5.72554 1.72281 6.70009 0.908277 7.67808C0.865727 7.72956 0.820138 7.78446 0.777588 7.83593C0.355125 8.3438 0.221396 9.06442 0.46454 9.70955C0.698566 10.3307 1.2426 10.763 1.8535 10.763H27.7118C28.0613 10.763 28.4109 10.7665 28.7604 10.763H28.806C29.195 10.763 29.6053 10.5709 29.8819 10.262C30.1463 9.96349 30.3439 9.47621 30.3256 9.04727C30.3074 8.6046 30.1797 8.14477 29.8819 7.8325C29.5871 7.52709 29.2224 7.3315 28.809 7.3315Z" fill="black"/>
<path d="M17.1652 9.04425V18.4535C17.9281 17.9594 18.691 17.4653 19.4508 16.9711C18.4478 16.3775 17.4448 15.7838 16.4388 15.1901C16.3112 15.1146 16.1835 15.0357 16.0528 14.9602C15.8158 14.8264 15.5574 14.7097 15.2839 14.7235C15.0043 14.7372 14.7672 14.8127 14.515 14.9568C14.5028 14.9637 14.4906 14.9705 14.4785 14.9808C14.4116 15.022 14.3417 15.0597 14.2749 15.1009C13.6913 15.4475 13.1078 15.7907 12.5242 16.1372C12.0562 16.4152 11.5881 16.6932 11.117 16.9677C11.8799 17.4618 12.6428 17.956 13.4026 18.4501V9.04082L11.8829 10.7566H18.6818C19.0709 10.7566 19.4812 10.5644 19.7577 10.2556C20.0222 9.95704 20.2197 9.46976 20.2015 9.04082C20.1832 8.59815 20.0556 8.13832 19.7577 7.82605C19.4599 7.51721 19.0952 7.32505 18.6818 7.32505H11.8829C11.0623 7.32505 10.3633 8.11087 10.3633 9.04082V18.4501C10.3633 19.0541 10.6551 19.6271 11.117 19.9325C11.6033 20.2551 12.1625 20.2208 12.6519 19.9325C13.6427 19.3457 14.6365 18.7589 15.6273 18.1721C15.7702 18.0898 15.91 18.004 16.0528 17.9216H14.518C15.5088 18.5084 16.5027 19.0952 17.4935 19.682C17.6363 19.7644 17.7761 19.8502 17.919 19.9325C18.4053 20.2208 18.9675 20.2551 19.4538 19.9325C19.9158 19.6271 20.2076 19.0575 20.2076 18.4501V9.04082C20.2076 8.60158 20.0374 8.13832 19.7638 7.82605C19.4994 7.52751 19.0678 7.30446 18.6879 7.32505C18.2958 7.34564 17.8886 7.48976 17.612 7.82605C17.3385 8.16921 17.1652 8.58099 17.1652 9.04425Z" fill="black"/>
</svg>
