<svg width="145" height="22" viewBox="0 0 145 22" fill="none" xmlns="http://www.w3.org/2000/svg">
<path d="M4.57031 9C4.57031 8.16146 4.77604 7.39583 5.1875 6.70312C5.59896 6.01042 6.14844 5.46094 6.83594 5.05469C7.52865 4.64323 8.29427 4.4375 9.13281 4.4375C9.86198 4.4375 10.5365 4.59635 11.1562 4.91406C11.776 5.22656 12.2891 5.65625 12.6953 6.20312C13.1016 6.75 13.349 7.36458 13.4375 8.04687H11.4063C11.3125 7.5625 11.0469 7.16667 10.6094 6.85938C10.1771 6.54687 9.6849 6.39062 9.13281 6.39062C8.65365 6.39062 8.21615 6.50781 7.82031 6.74219C7.42448 6.97656 7.10938 7.29167 6.875 7.6875C6.64063 8.07812 6.52344 8.51562 6.52344 9C6.52344 9.47917 6.64063 9.91667 6.875 10.3125C7.10938 10.7083 7.42448 11.0234 7.82031 11.2578C8.21615 11.4922 8.65365 11.6094 9.13281 11.6094C9.6849 11.6094 10.1563 11.4557 10.5469 11.1484C10.9375 10.8359 11.1823 10.4375 11.2812 9.95312H13.3125C13.224 10.6354 12.987 11.25 12.6016 11.7969C12.2161 12.3437 11.724 12.776 11.125 13.0937C10.526 13.4062 9.86198 13.5625 9.13281 13.5625C8.29427 13.5625 7.52865 13.3594 6.83594 12.9531C6.14844 12.5417 5.59896 11.9896 5.1875 11.2969C4.77604 10.6042 4.57031 9.83854 4.57031 9ZM9.0625 17.25C7.92708 17.25 6.85938 17.0365 5.85938 16.6094C4.86458 16.1823 3.98698 15.5911 3.22656 14.8359C2.47135 14.0755 1.8776 13.1979 1.44531 12.2031C1.01823 11.2083 0.807292 10.1406 0.8125 9C0.817708 7.85937 1.03385 6.79167 1.46094 5.79687C1.89323 4.80208 2.48698 3.92708 3.24219 3.17188C3.9974 2.41146 4.8724 1.81771 5.86719 1.39062C6.86198 0.963541 7.92708 0.75 9.0625 0.75C10.2031 0.75 11.2708 0.963541 12.2656 1.39062C13.2656 1.81771 14.1406 2.41146 14.8906 3.17188C15.6458 3.92708 16.237 4.80208 16.6641 5.79687C17.0911 6.79167 17.3073 7.85937 17.3125 9C17.3177 10.1406 17.1068 11.2083 16.6797 12.2031C16.2526 13.1979 15.6615 14.0755 14.9063 14.8359C14.151 15.5911 13.2734 16.1823 12.2734 16.6094C11.2734 17.0365 10.2031 17.25 9.0625 17.25ZM9.0625 15.1719C9.91667 15.1719 10.7188 15.013 11.4688 14.6953C12.2188 14.3776 12.875 13.9375 13.4375 13.375C14.0052 12.8073 14.4479 12.151 14.7656 11.4062C15.0833 10.6562 15.2396 9.85677 15.2344 9.00781C15.2344 8.15365 15.0729 7.35156 14.75 6.60156C14.4323 5.85156 13.9896 5.19531 13.4219 4.63281C12.8594 4.0651 12.2057 3.62239 11.4609 3.30469C10.7161 2.98698 9.91667 2.82812 9.0625 2.82812C8.21354 2.82812 7.41667 2.98698 6.67188 3.30469C5.92708 3.62239 5.27083 4.0651 4.70313 4.63281C4.14063 5.20052 3.69792 5.85937 3.375 6.60937C3.05208 7.35417 2.89063 8.15365 2.89063 9.00781C2.88542 9.85156 3.04167 10.6484 3.35938 11.3984C3.68229 12.1432 4.125 12.7995 4.6875 13.3672C5.25521 13.9297 5.91146 14.3724 6.65625 14.6953C7.40625 15.013 8.20833 15.1719 9.0625 15.1719ZM46.4316 9C46.4316 10.7083 46.1191 12.1771 45.4941 13.4062C44.8691 14.6302 44.0124 15.5729 42.9238 16.2344C41.8405 16.8906 40.6087 17.2187 39.2285 17.2187C37.8431 17.2187 36.6061 16.8906 35.5176 16.2344C34.4342 15.5729 33.5801 14.6276 32.9551 13.3984C32.3301 12.1693 32.0176 10.7031 32.0176 9C32.0176 7.29167 32.3301 5.82552 32.9551 4.60156C33.5801 3.3724 34.4342 2.42969 35.5176 1.77344C36.6061 1.11198 37.8431 0.781249 39.2285 0.781249C40.6087 0.781249 41.8405 1.11198 42.9238 1.77344C44.0124 2.42969 44.8691 3.3724 45.4941 4.60156C46.1191 5.82552 46.4316 7.29167 46.4316 9ZM44.041 9C44.041 7.69792 43.8301 6.60156 43.4082 5.71094C42.9915 4.8151 42.4186 4.13802 41.6895 3.67969C40.9655 3.21615 40.1452 2.98437 39.2285 2.98437C38.3066 2.98437 37.4837 3.21615 36.7598 3.67969C36.0358 4.13802 35.4629 4.8151 35.041 5.71094C34.6243 6.60156 34.416 7.69792 34.416 9C34.416 10.3021 34.6243 11.401 35.041 12.2969C35.4629 13.1875 36.0358 13.8646 36.7598 14.3281C37.4837 14.7865 38.3066 15.0156 39.2285 15.0156C40.1452 15.0156 40.9655 14.7865 41.6895 14.3281C42.4186 13.8646 42.9915 13.1875 43.4082 12.2969C43.8301 11.401 44.041 10.3021 44.041 9ZM49.2539 21.5V5H51.5352V6.94531H51.7305C51.8659 6.69531 52.0612 6.40625 52.3164 6.07812C52.5716 5.75 52.9258 5.46354 53.3789 5.21875C53.832 4.96875 54.431 4.84375 55.1758 4.84375C56.1445 4.84375 57.0091 5.08854 57.7695 5.57813C58.5299 6.06771 59.1263 6.77344 59.5586 7.69531C59.9961 8.61719 60.2148 9.72656 60.2148 11.0234C60.2148 12.3203 59.9987 13.4323 59.5664 14.3594C59.1341 15.2812 58.5404 15.9922 57.7852 16.4922C57.0299 16.987 56.168 17.2344 55.1992 17.2344C54.4701 17.2344 53.8737 17.112 53.4102 16.8672C52.9518 16.6224 52.5924 16.3359 52.332 16.0078C52.0716 15.6797 51.8711 15.388 51.7305 15.1328H51.5898V21.5H49.2539ZM51.543 11C51.543 11.8437 51.6654 12.5833 51.9102 13.2188C52.1549 13.8542 52.5091 14.3516 52.9727 14.7109C53.4362 15.0651 54.0039 15.2422 54.6758 15.2422C55.3737 15.2422 55.957 15.0573 56.4258 14.6875C56.8945 14.3125 57.2487 13.8047 57.4883 13.1641C57.7331 12.5234 57.8555 11.8021 57.8555 11C57.8555 10.2083 57.7357 9.4974 57.4961 8.86719C57.2617 8.23698 56.9076 7.73958 56.4336 7.375C55.9648 7.01042 55.3789 6.82812 54.6758 6.82812C53.9987 6.82812 53.4258 7.0026 52.957 7.35156C52.4935 7.70052 52.1419 8.1875 51.9023 8.8125C51.6628 9.4375 51.543 10.1667 51.543 11ZM68.0039 17.2422C66.8216 17.2422 65.8034 16.9896 64.9492 16.4844C64.1003 15.974 63.444 15.2578 62.9805 14.3359C62.5221 13.4089 62.293 12.3229 62.293 11.0781C62.293 9.84896 62.5221 8.76562 62.9805 7.82812C63.444 6.89062 64.0898 6.15885 64.918 5.63281C65.7513 5.10677 66.7253 4.84375 67.8398 4.84375C68.5169 4.84375 69.1732 4.95573 69.8086 5.17969C70.444 5.40365 71.0143 5.75521 71.5195 6.23437C72.0247 6.71354 72.4232 7.33594 72.7148 8.10156C73.0065 8.86198 73.1523 9.78646 73.1523 10.875V11.7031H63.6133V9.95312H70.8633C70.8633 9.33854 70.7383 8.79427 70.4883 8.32031C70.2383 7.84115 69.8867 7.46354 69.4336 7.1875C68.9857 6.91146 68.4596 6.77344 67.8555 6.77344C67.1992 6.77344 66.6263 6.9349 66.1367 7.25781C65.6523 7.57552 65.2773 7.99219 65.0117 8.50781C64.7513 9.01823 64.6211 9.57292 64.6211 10.1719V11.5391C64.6211 12.3411 64.7617 13.0234 65.043 13.5859C65.3294 14.1484 65.7279 14.5781 66.2383 14.875C66.7487 15.1667 67.3451 15.3125 68.0273 15.3125C68.4701 15.3125 68.8737 15.25 69.2383 15.125C69.6029 14.9948 69.918 14.8021 70.1836 14.5469C70.4492 14.2917 70.6523 13.9766 70.793 13.6016L73.0039 14C72.8268 14.651 72.5091 15.2214 72.0508 15.7109C71.5977 16.1953 71.0273 16.5729 70.3398 16.8437C69.6576 17.1094 68.8789 17.2422 68.0039 17.2422ZM78.0801 9.875V17H75.7441V5H77.9863V6.95312H78.1348C78.4108 6.31771 78.8431 5.80729 79.4316 5.42187C80.0254 5.03646 80.7728 4.84375 81.6738 4.84375C82.4915 4.84375 83.2077 5.01563 83.8223 5.35938C84.4368 5.69792 84.9134 6.20312 85.252 6.875C85.5905 7.54687 85.7598 8.3776 85.7598 9.36719V17H83.4238V9.64844C83.4238 8.77865 83.1973 8.09896 82.7441 7.60937C82.291 7.11458 81.6686 6.86719 80.877 6.86719C80.3353 6.86719 79.8535 6.98437 79.4316 7.21875C79.015 7.45312 78.6842 7.79687 78.4395 8.25C78.1999 8.69792 78.0801 9.23958 78.0801 9.875ZM93.9473 17.2422C92.7858 17.2422 91.7858 16.9792 90.9473 16.4531C90.1139 15.9219 89.4733 15.1901 89.0254 14.2578C88.5775 13.3255 88.3535 12.2578 88.3535 11.0547C88.3535 9.83594 88.5827 8.76042 89.041 7.82812C89.4993 6.89062 90.1452 6.15885 90.9785 5.63281C91.8118 5.10677 92.7936 4.84375 93.9238 4.84375C94.8353 4.84375 95.6478 5.01302 96.3613 5.35156C97.0749 5.6849 97.6504 6.15365 98.0879 6.75781C98.5306 7.36198 98.7936 8.06771 98.877 8.875H96.6035C96.4785 8.3125 96.1921 7.82812 95.7441 7.42187C95.3014 7.01562 94.7077 6.8125 93.9629 6.8125C93.3118 6.8125 92.7415 6.98437 92.252 7.32812C91.7676 7.66667 91.39 8.15104 91.1191 8.78125C90.8483 9.40625 90.7129 10.1458 90.7129 11C90.7129 11.875 90.8457 12.6302 91.1113 13.2656C91.377 13.901 91.752 14.3932 92.2363 14.7422C92.7259 15.0911 93.3014 15.2656 93.9629 15.2656C94.4056 15.2656 94.8066 15.1849 95.166 15.0234C95.5306 14.8568 95.8353 14.6198 96.0801 14.3125C96.3301 14.0052 96.5046 13.6354 96.6035 13.2031H98.877C98.7936 13.9792 98.541 14.6719 98.1191 15.2812C97.6973 15.8906 97.1322 16.3698 96.4238 16.7187C95.7207 17.0677 94.8952 17.2422 93.9473 17.2422ZM108.977 12.0234V5H111.32V17H109.023V14.9219H108.898C108.622 15.5625 108.18 16.0964 107.57 16.5234C106.966 16.9453 106.214 17.1563 105.313 17.1563C104.542 17.1563 103.859 16.987 103.266 16.6484C102.677 16.3047 102.214 15.7969 101.875 15.125C101.542 14.4531 101.375 13.6224 101.375 12.6328V5H103.711V12.3516C103.711 13.1693 103.938 13.8203 104.391 14.3047C104.844 14.7891 105.432 15.0312 106.156 15.0312C106.594 15.0312 107.029 14.9219 107.461 14.7031C107.898 14.4844 108.26 14.1536 108.547 13.7109C108.839 13.2682 108.982 12.7057 108.977 12.0234ZM114.646 17V1H116.982V6.94531H117.123C117.258 6.69531 117.454 6.40625 117.709 6.07812C117.964 5.75 118.318 5.46354 118.771 5.21875C119.225 4.96875 119.824 4.84375 120.568 4.84375C121.537 4.84375 122.402 5.08854 123.162 5.57813C123.923 6.06771 124.519 6.77344 124.951 7.69531C125.389 8.61719 125.607 9.72656 125.607 11.0234C125.607 12.3203 125.391 13.4323 124.959 14.3594C124.527 15.2812 123.933 15.9922 123.178 16.4922C122.423 16.987 121.561 17.2344 120.592 17.2344C119.863 17.2344 119.266 17.112 118.803 16.8672C118.344 16.6224 117.985 16.3359 117.725 16.0078C117.464 15.6797 117.264 15.388 117.123 15.1328H116.928V17H114.646ZM116.936 11C116.936 11.8437 117.058 12.5833 117.303 13.2188C117.548 13.8542 117.902 14.3516 118.365 14.7109C118.829 15.0651 119.396 15.2422 120.068 15.2422C120.766 15.2422 121.35 15.0573 121.818 14.6875C122.287 14.3125 122.641 13.8047 122.881 13.1641C123.126 12.5234 123.248 11.8021 123.248 11C123.248 10.2083 123.128 9.4974 122.889 8.86719C122.654 8.23698 122.3 7.73958 121.826 7.375C121.357 7.01042 120.771 6.82812 120.068 6.82812C119.391 6.82812 118.818 7.0026 118.35 7.35156C117.886 7.70052 117.535 8.1875 117.295 8.8125C117.055 9.4375 116.936 10.1667 116.936 11ZM133.402 17.2422C132.22 17.2422 131.202 16.9896 130.348 16.4844C129.499 15.974 128.842 15.2578 128.379 14.3359C127.921 13.4089 127.691 12.3229 127.691 11.0781C127.691 9.84896 127.921 8.76562 128.379 7.82812C128.842 6.89062 129.488 6.15885 130.316 5.63281C131.15 5.10677 132.124 4.84375 133.238 4.84375C133.915 4.84375 134.572 4.95573 135.207 5.17969C135.842 5.40365 136.413 5.75521 136.918 6.23437C137.423 6.71354 137.822 7.33594 138.113 8.10156C138.405 8.86198 138.551 9.78646 138.551 10.875V11.7031H129.012V9.95312H136.262C136.262 9.33854 136.137 8.79427 135.887 8.32031C135.637 7.84115 135.285 7.46354 134.832 7.1875C134.384 6.91146 133.858 6.77344 133.254 6.77344C132.598 6.77344 132.025 6.9349 131.535 7.25781C131.051 7.57552 130.676 7.99219 130.41 8.50781C130.15 9.01823 130.02 9.57292 130.02 10.1719V11.5391C130.02 12.3411 130.16 13.0234 130.441 13.5859C130.728 14.1484 131.126 14.5781 131.637 14.875C132.147 15.1667 132.743 15.3125 133.426 15.3125C133.868 15.3125 134.272 15.25 134.637 15.125C135.001 14.9948 135.316 14.8021 135.582 14.5469C135.848 14.2917 136.051 13.9766 136.191 13.6016L138.402 14C138.225 14.651 137.908 15.2214 137.449 15.7109C136.996 16.1953 136.426 16.5729 135.738 16.8437C135.056 17.1094 134.277 17.2422 133.402 17.2422ZM142.682 17.1484C142.255 17.1484 141.887 16.9974 141.58 16.6953C141.273 16.388 141.119 16.0182 141.119 15.5859C141.119 15.1589 141.273 14.7943 141.58 14.4922C141.887 14.1849 142.255 14.0312 142.682 14.0312C143.109 14.0312 143.476 14.1849 143.783 14.4922C144.09 14.7943 144.244 15.1589 144.244 15.5859C144.244 15.8724 144.171 16.1354 144.025 16.375C143.885 16.6094 143.697 16.7969 143.463 16.9375C143.229 17.0781 142.968 17.1484 142.682 17.1484Z" fill="#808080"/>
</svg>
